<?xml version="1.0" encoding="utf-8" standalone="no"?>
<!DOCTYPE svg PUBLIC "-//W3C//DTD SVG 1.1//EN"
  "http://www.w3.org/Graphics/SVG/1.1/DTD/svg11.dtd">
<svg xmlns:xlink="http://www.w3.org/1999/xlink" width="460.8pt" height="345.6pt" viewBox="0 0 460.8 345.6" xmlns="http://www.w3.org/2000/svg" version="1.1">
 <metadata>
  <rdf:RDF xmlns:dc="http://purl.org/dc/elements/1.1/" xmlns:cc="http://creativecommons.org/ns#" xmlns:rdf="http://www.w3.org/1999/02/22-rdf-syntax-ns#">
   <cc:Work>
    <dc:type rdf:resource="http://purl.org/dc/dcmitype/StillImage"/>
    <dc:date>2025-04-14T20:01:24.553017</dc:date>
    <dc:format>image/svg+xml</dc:format>
    <dc:creator>
     <cc:Agent>
      <dc:title>Matplotlib v3.10.1, https://matplotlib.org/</dc:title>
     </cc:Agent>
    </dc:creator>
   </cc:Work>
  </rdf:RDF>
 </metadata>
 <defs>
  <style type="text/css">*{stroke-linejoin: round; stroke-linecap: butt}</style>
 </defs>
 <g id="figure_1">
  <g id="patch_1">
   <path d="M 0 345.6 
L 460.8 345.6 
L 460.8 0 
L 0 0 
z
" style="fill: #ffffff"/>
  </g>
  <g id="axes_1">
   <g id="patch_2">
    <path d="M 73.55 283.48 
L 437.567727 283.48 
L 437.567727 19.44 
L 73.55 19.44 
z
" style="fill: #ffffff"/>
   </g>
   <g id="matplotlib.axis_1">
    <g id="xtick_1">
     <g id="line2d_1">
      <path d="M 90.09626 283.48 
L 90.09626 19.44 
" clip-path="url(#p8d44aa06a9)" style="fill: none; stroke: #b0b0b0; stroke-width: 0.8; stroke-linecap: square"/>
     </g>
     <g id="line2d_2">
      <defs>
       <path id="m571c3a0e82" d="M 0 0 
L 0 3.5 
" style="stroke: #000000; stroke-width: 0.8"/>
      </defs>
      <g>
       <use xlink:href="#m571c3a0e82" x="90.09626" y="283.48" style="stroke: #000000; stroke-width: 0.8"/>
      </g>
     </g>
     <g id="text_1">
      <!-- 0.90 -->
      <g transform="translate(70.057198 304.157187) scale(0.18 -0.18)">
       <defs>
        <path id="DejaVuSans-30" d="M 2034 4250 
Q 1547 4250 1301 3770 
Q 1056 3291 1056 2328 
Q 1056 1369 1301 889 
Q 1547 409 2034 409 
Q 2525 409 2770 889 
Q 3016 1369 3016 2328 
Q 3016 3291 2770 3770 
Q 2525 4250 2034 4250 
z
M 2034 4750 
Q 2819 4750 3233 4129 
Q 3647 3509 3647 2328 
Q 3647 1150 3233 529 
Q 2819 -91 2034 -91 
Q 1250 -91 836 529 
Q 422 1150 422 2328 
Q 422 3509 836 4129 
Q 1250 4750 2034 4750 
z
" transform="scale(0.015625)"/>
        <path id="DejaVuSans-2e" d="M 684 794 
L 1344 794 
L 1344 0 
L 684 0 
L 684 794 
z
" transform="scale(0.015625)"/>
        <path id="DejaVuSans-39" d="M 703 97 
L 703 672 
Q 941 559 1184 500 
Q 1428 441 1663 441 
Q 2288 441 2617 861 
Q 2947 1281 2994 2138 
Q 2813 1869 2534 1725 
Q 2256 1581 1919 1581 
Q 1219 1581 811 2004 
Q 403 2428 403 3163 
Q 403 3881 828 4315 
Q 1253 4750 1959 4750 
Q 2769 4750 3195 4129 
Q 3622 3509 3622 2328 
Q 3622 1225 3098 567 
Q 2575 -91 1691 -91 
Q 1453 -91 1209 -44 
Q 966 3 703 97 
z
M 1959 2075 
Q 2384 2075 2632 2365 
Q 2881 2656 2881 3163 
Q 2881 3666 2632 3958 
Q 2384 4250 1959 4250 
Q 1534 4250 1286 3958 
Q 1038 3666 1038 3163 
Q 1038 2656 1286 2365 
Q 1534 2075 1959 2075 
z
" transform="scale(0.015625)"/>
       </defs>
       <use xlink:href="#DejaVuSans-30"/>
       <use xlink:href="#DejaVuSans-2e" transform="translate(63.623047 0)"/>
       <use xlink:href="#DejaVuSans-39" transform="translate(95.410156 0)"/>
       <use xlink:href="#DejaVuSans-30" transform="translate(159.033203 0)"/>
      </g>
     </g>
    </g>
    <g id="xtick_2">
     <g id="line2d_3">
      <path d="M 156.281302 283.48 
L 156.281302 19.44 
" clip-path="url(#p8d44aa06a9)" style="fill: none; stroke: #b0b0b0; stroke-width: 0.8; stroke-linecap: square"/>
     </g>
     <g id="line2d_4">
      <g>
       <use xlink:href="#m571c3a0e82" x="156.281302" y="283.48" style="stroke: #000000; stroke-width: 0.8"/>
      </g>
     </g>
     <g id="text_2">
      <!-- 0.92 -->
      <g transform="translate(136.242239 304.157187) scale(0.18 -0.18)">
       <defs>
        <path id="DejaVuSans-32" d="M 1228 531 
L 3431 531 
L 3431 0 
L 469 0 
L 469 531 
Q 828 903 1448 1529 
Q 2069 2156 2228 2338 
Q 2531 2678 2651 2914 
Q 2772 3150 2772 3378 
Q 2772 3750 2511 3984 
Q 2250 4219 1831 4219 
Q 1534 4219 1204 4116 
Q 875 4013 500 3803 
L 500 4441 
Q 881 4594 1212 4672 
Q 1544 4750 1819 4750 
Q 2544 4750 2975 4387 
Q 3406 4025 3406 3419 
Q 3406 3131 3298 2873 
Q 3191 2616 2906 2266 
Q 2828 2175 2409 1742 
Q 1991 1309 1228 531 
z
" transform="scale(0.015625)"/>
       </defs>
       <use xlink:href="#DejaVuSans-30"/>
       <use xlink:href="#DejaVuSans-2e" transform="translate(63.623047 0)"/>
       <use xlink:href="#DejaVuSans-39" transform="translate(95.410156 0)"/>
       <use xlink:href="#DejaVuSans-32" transform="translate(159.033203 0)"/>
      </g>
     </g>
    </g>
    <g id="xtick_3">
     <g id="line2d_5">
      <path d="M 222.466343 283.48 
L 222.466343 19.44 
" clip-path="url(#p8d44aa06a9)" style="fill: none; stroke: #b0b0b0; stroke-width: 0.8; stroke-linecap: square"/>
     </g>
     <g id="line2d_6">
      <g>
       <use xlink:href="#m571c3a0e82" x="222.466343" y="283.48" style="stroke: #000000; stroke-width: 0.8"/>
      </g>
     </g>
     <g id="text_3">
      <!-- 0.94 -->
      <g transform="translate(202.42728 304.157187) scale(0.18 -0.18)">
       <defs>
        <path id="DejaVuSans-34" d="M 2419 4116 
L 825 1625 
L 2419 1625 
L 2419 4116 
z
M 2253 4666 
L 3047 4666 
L 3047 1625 
L 3713 1625 
L 3713 1100 
L 3047 1100 
L 3047 0 
L 2419 0 
L 2419 1100 
L 313 1100 
L 313 1709 
L 2253 4666 
z
" transform="scale(0.015625)"/>
       </defs>
       <use xlink:href="#DejaVuSans-30"/>
       <use xlink:href="#DejaVuSans-2e" transform="translate(63.623047 0)"/>
       <use xlink:href="#DejaVuSans-39" transform="translate(95.410156 0)"/>
       <use xlink:href="#DejaVuSans-34" transform="translate(159.033203 0)"/>
      </g>
     </g>
    </g>
    <g id="xtick_4">
     <g id="line2d_7">
      <path d="M 288.651384 283.48 
L 288.651384 19.44 
" clip-path="url(#p8d44aa06a9)" style="fill: none; stroke: #b0b0b0; stroke-width: 0.8; stroke-linecap: square"/>
     </g>
     <g id="line2d_8">
      <g>
       <use xlink:href="#m571c3a0e82" x="288.651384" y="283.48" style="stroke: #000000; stroke-width: 0.8"/>
      </g>
     </g>
     <g id="text_4">
      <!-- 0.96 -->
      <g transform="translate(268.612322 304.157187) scale(0.18 -0.18)">
       <defs>
        <path id="DejaVuSans-36" d="M 2113 2584 
Q 1688 2584 1439 2293 
Q 1191 2003 1191 1497 
Q 1191 994 1439 701 
Q 1688 409 2113 409 
Q 2538 409 2786 701 
Q 3034 994 3034 1497 
Q 3034 2003 2786 2293 
Q 2538 2584 2113 2584 
z
M 3366 4563 
L 3366 3988 
Q 3128 4100 2886 4159 
Q 2644 4219 2406 4219 
Q 1781 4219 1451 3797 
Q 1122 3375 1075 2522 
Q 1259 2794 1537 2939 
Q 1816 3084 2150 3084 
Q 2853 3084 3261 2657 
Q 3669 2231 3669 1497 
Q 3669 778 3244 343 
Q 2819 -91 2113 -91 
Q 1303 -91 875 529 
Q 447 1150 447 2328 
Q 447 3434 972 4092 
Q 1497 4750 2381 4750 
Q 2619 4750 2861 4703 
Q 3103 4656 3366 4563 
z
" transform="scale(0.015625)"/>
       </defs>
       <use xlink:href="#DejaVuSans-30"/>
       <use xlink:href="#DejaVuSans-2e" transform="translate(63.623047 0)"/>
       <use xlink:href="#DejaVuSans-39" transform="translate(95.410156 0)"/>
       <use xlink:href="#DejaVuSans-36" transform="translate(159.033203 0)"/>
      </g>
     </g>
    </g>
    <g id="xtick_5">
     <g id="line2d_9">
      <path d="M 354.836426 283.48 
L 354.836426 19.44 
" clip-path="url(#p8d44aa06a9)" style="fill: none; stroke: #b0b0b0; stroke-width: 0.8; stroke-linecap: square"/>
     </g>
     <g id="line2d_10">
      <g>
       <use xlink:href="#m571c3a0e82" x="354.836426" y="283.48" style="stroke: #000000; stroke-width: 0.8"/>
      </g>
     </g>
     <g id="text_5">
      <!-- 0.98 -->
      <g transform="translate(334.797363 304.157187) scale(0.18 -0.18)">
       <defs>
        <path id="DejaVuSans-38" d="M 2034 2216 
Q 1584 2216 1326 1975 
Q 1069 1734 1069 1313 
Q 1069 891 1326 650 
Q 1584 409 2034 409 
Q 2484 409 2743 651 
Q 3003 894 3003 1313 
Q 3003 1734 2745 1975 
Q 2488 2216 2034 2216 
z
M 1403 2484 
Q 997 2584 770 2862 
Q 544 3141 544 3541 
Q 544 4100 942 4425 
Q 1341 4750 2034 4750 
Q 2731 4750 3128 4425 
Q 3525 4100 3525 3541 
Q 3525 3141 3298 2862 
Q 3072 2584 2669 2484 
Q 3125 2378 3379 2068 
Q 3634 1759 3634 1313 
Q 3634 634 3220 271 
Q 2806 -91 2034 -91 
Q 1263 -91 848 271 
Q 434 634 434 1313 
Q 434 1759 690 2068 
Q 947 2378 1403 2484 
z
M 1172 3481 
Q 1172 3119 1398 2916 
Q 1625 2713 2034 2713 
Q 2441 2713 2670 2916 
Q 2900 3119 2900 3481 
Q 2900 3844 2670 4047 
Q 2441 4250 2034 4250 
Q 1625 4250 1398 4047 
Q 1172 3844 1172 3481 
z
" transform="scale(0.015625)"/>
       </defs>
       <use xlink:href="#DejaVuSans-30"/>
       <use xlink:href="#DejaVuSans-2e" transform="translate(63.623047 0)"/>
       <use xlink:href="#DejaVuSans-39" transform="translate(95.410156 0)"/>
       <use xlink:href="#DejaVuSans-38" transform="translate(159.033203 0)"/>
      </g>
     </g>
    </g>
    <g id="xtick_6">
     <g id="line2d_11">
      <path d="M 421.021467 283.48 
L 421.021467 19.44 
" clip-path="url(#p8d44aa06a9)" style="fill: none; stroke: #b0b0b0; stroke-width: 0.8; stroke-linecap: square"/>
     </g>
     <g id="line2d_12">
      <g>
       <use xlink:href="#m571c3a0e82" x="421.021467" y="283.48" style="stroke: #000000; stroke-width: 0.8"/>
      </g>
     </g>
     <g id="text_6">
      <!-- 1.00 -->
      <g transform="translate(400.982404 304.157187) scale(0.18 -0.18)">
       <defs>
        <path id="DejaVuSans-31" d="M 794 531 
L 1825 531 
L 1825 4091 
L 703 3866 
L 703 4441 
L 1819 4666 
L 2450 4666 
L 2450 531 
L 3481 531 
L 3481 0 
L 794 0 
L 794 531 
z
" transform="scale(0.015625)"/>
       </defs>
       <use xlink:href="#DejaVuSans-31"/>
       <use xlink:href="#DejaVuSans-2e" transform="translate(63.623047 0)"/>
       <use xlink:href="#DejaVuSans-30" transform="translate(95.410156 0)"/>
       <use xlink:href="#DejaVuSans-30" transform="translate(159.033203 0)"/>
      </g>
     </g>
    </g>
    <g id="text_7">
     <!-- Gate Fidelity -->
     <g transform="translate(205.295114 324.058125) scale(0.16 -0.16)">
      <defs>
       <path id="DejaVuSans-47" d="M 3809 666 
L 3809 1919 
L 2778 1919 
L 2778 2438 
L 4434 2438 
L 4434 434 
Q 4069 175 3628 42 
Q 3188 -91 2688 -91 
Q 1594 -91 976 548 
Q 359 1188 359 2328 
Q 359 3472 976 4111 
Q 1594 4750 2688 4750 
Q 3144 4750 3555 4637 
Q 3966 4525 4313 4306 
L 4313 3634 
Q 3963 3931 3569 4081 
Q 3175 4231 2741 4231 
Q 1884 4231 1454 3753 
Q 1025 3275 1025 2328 
Q 1025 1384 1454 906 
Q 1884 428 2741 428 
Q 3075 428 3337 486 
Q 3600 544 3809 666 
z
" transform="scale(0.015625)"/>
       <path id="DejaVuSans-61" d="M 2194 1759 
Q 1497 1759 1228 1600 
Q 959 1441 959 1056 
Q 959 750 1161 570 
Q 1363 391 1709 391 
Q 2188 391 2477 730 
Q 2766 1069 2766 1631 
L 2766 1759 
L 2194 1759 
z
M 3341 1997 
L 3341 0 
L 2766 0 
L 2766 531 
Q 2569 213 2275 61 
Q 1981 -91 1556 -91 
Q 1019 -91 701 211 
Q 384 513 384 1019 
Q 384 1609 779 1909 
Q 1175 2209 1959 2209 
L 2766 2209 
L 2766 2266 
Q 2766 2663 2505 2880 
Q 2244 3097 1772 3097 
Q 1472 3097 1187 3025 
Q 903 2953 641 2809 
L 641 3341 
Q 956 3463 1253 3523 
Q 1550 3584 1831 3584 
Q 2591 3584 2966 3190 
Q 3341 2797 3341 1997 
z
" transform="scale(0.015625)"/>
       <path id="DejaVuSans-74" d="M 1172 4494 
L 1172 3500 
L 2356 3500 
L 2356 3053 
L 1172 3053 
L 1172 1153 
Q 1172 725 1289 603 
Q 1406 481 1766 481 
L 2356 481 
L 2356 0 
L 1766 0 
Q 1100 0 847 248 
Q 594 497 594 1153 
L 594 3053 
L 172 3053 
L 172 3500 
L 594 3500 
L 594 4494 
L 1172 4494 
z
" transform="scale(0.015625)"/>
       <path id="DejaVuSans-65" d="M 3597 1894 
L 3597 1613 
L 953 1613 
Q 991 1019 1311 708 
Q 1631 397 2203 397 
Q 2534 397 2845 478 
Q 3156 559 3463 722 
L 3463 178 
Q 3153 47 2828 -22 
Q 2503 -91 2169 -91 
Q 1331 -91 842 396 
Q 353 884 353 1716 
Q 353 2575 817 3079 
Q 1281 3584 2069 3584 
Q 2775 3584 3186 3129 
Q 3597 2675 3597 1894 
z
M 3022 2063 
Q 3016 2534 2758 2815 
Q 2500 3097 2075 3097 
Q 1594 3097 1305 2825 
Q 1016 2553 972 2059 
L 3022 2063 
z
" transform="scale(0.015625)"/>
       <path id="DejaVuSans-20" transform="scale(0.015625)"/>
       <path id="DejaVuSans-46" d="M 628 4666 
L 3309 4666 
L 3309 4134 
L 1259 4134 
L 1259 2759 
L 3109 2759 
L 3109 2228 
L 1259 2228 
L 1259 0 
L 628 0 
L 628 4666 
z
" transform="scale(0.015625)"/>
       <path id="DejaVuSans-69" d="M 603 3500 
L 1178 3500 
L 1178 0 
L 603 0 
L 603 3500 
z
M 603 4863 
L 1178 4863 
L 1178 4134 
L 603 4134 
L 603 4863 
z
" transform="scale(0.015625)"/>
       <path id="DejaVuSans-64" d="M 2906 2969 
L 2906 4863 
L 3481 4863 
L 3481 0 
L 2906 0 
L 2906 525 
Q 2725 213 2448 61 
Q 2172 -91 1784 -91 
Q 1150 -91 751 415 
Q 353 922 353 1747 
Q 353 2572 751 3078 
Q 1150 3584 1784 3584 
Q 2172 3584 2448 3432 
Q 2725 3281 2906 2969 
z
M 947 1747 
Q 947 1113 1208 752 
Q 1469 391 1925 391 
Q 2381 391 2643 752 
Q 2906 1113 2906 1747 
Q 2906 2381 2643 2742 
Q 2381 3103 1925 3103 
Q 1469 3103 1208 2742 
Q 947 2381 947 1747 
z
" transform="scale(0.015625)"/>
       <path id="DejaVuSans-6c" d="M 603 4863 
L 1178 4863 
L 1178 0 
L 603 0 
L 603 4863 
z
" transform="scale(0.015625)"/>
       <path id="DejaVuSans-79" d="M 2059 -325 
Q 1816 -950 1584 -1140 
Q 1353 -1331 966 -1331 
L 506 -1331 
L 506 -850 
L 844 -850 
Q 1081 -850 1212 -737 
Q 1344 -625 1503 -206 
L 1606 56 
L 191 3500 
L 800 3500 
L 1894 763 
L 2988 3500 
L 3597 3500 
L 2059 -325 
z
" transform="scale(0.015625)"/>
      </defs>
      <use xlink:href="#DejaVuSans-47"/>
      <use xlink:href="#DejaVuSans-61" transform="translate(77.490234 0)"/>
      <use xlink:href="#DejaVuSans-74" transform="translate(138.769531 0)"/>
      <use xlink:href="#DejaVuSans-65" transform="translate(177.978516 0)"/>
      <use xlink:href="#DejaVuSans-20" transform="translate(239.501953 0)"/>
      <use xlink:href="#DejaVuSans-46" transform="translate(271.289062 0)"/>
      <use xlink:href="#DejaVuSans-69" transform="translate(321.558594 0)"/>
      <use xlink:href="#DejaVuSans-64" transform="translate(349.341797 0)"/>
      <use xlink:href="#DejaVuSans-65" transform="translate(412.818359 0)"/>
      <use xlink:href="#DejaVuSans-6c" transform="translate(474.341797 0)"/>
      <use xlink:href="#DejaVuSans-69" transform="translate(502.125 0)"/>
      <use xlink:href="#DejaVuSans-74" transform="translate(529.908203 0)"/>
      <use xlink:href="#DejaVuSans-79" transform="translate(569.117188 0)"/>
     </g>
    </g>
   </g>
   <g id="matplotlib.axis_2">
    <g id="ytick_1">
     <g id="line2d_13">
      <path d="M 73.55 279.124108 
L 437.567727 279.124108 
" clip-path="url(#p8d44aa06a9)" style="fill: none; stroke: #b0b0b0; stroke-width: 0.8; stroke-linecap: square"/>
     </g>
     <g id="line2d_14">
      <defs>
       <path id="m00b910abcd" d="M 0 0 
L -3.5 0 
" style="stroke: #000000; stroke-width: 0.8"/>
      </defs>
      <g>
       <use xlink:href="#m00b910abcd" x="73.55" y="279.124108" style="stroke: #000000; stroke-width: 0.8"/>
      </g>
     </g>
     <g id="text_8">
      <!-- 0.5 -->
      <g transform="translate(37.924375 285.962702) scale(0.18 -0.18)">
       <defs>
        <path id="DejaVuSans-35" d="M 691 4666 
L 3169 4666 
L 3169 4134 
L 1269 4134 
L 1269 2991 
Q 1406 3038 1543 3061 
Q 1681 3084 1819 3084 
Q 2600 3084 3056 2656 
Q 3513 2228 3513 1497 
Q 3513 744 3044 326 
Q 2575 -91 1722 -91 
Q 1428 -91 1123 -41 
Q 819 9 494 109 
L 494 744 
Q 775 591 1075 516 
Q 1375 441 1709 441 
Q 2250 441 2565 725 
Q 2881 1009 2881 1497 
Q 2881 1984 2565 2268 
Q 2250 2553 1709 2553 
Q 1456 2553 1204 2497 
Q 953 2441 691 2322 
L 691 4666 
z
" transform="scale(0.015625)"/>
       </defs>
       <use xlink:href="#DejaVuSans-30"/>
       <use xlink:href="#DejaVuSans-2e" transform="translate(63.623047 0)"/>
       <use xlink:href="#DejaVuSans-35" transform="translate(95.410156 0)"/>
      </g>
     </g>
    </g>
    <g id="ytick_2">
     <g id="line2d_15">
      <path d="M 73.55 226.013498 
L 437.567727 226.013498 
" clip-path="url(#p8d44aa06a9)" style="fill: none; stroke: #b0b0b0; stroke-width: 0.8; stroke-linecap: square"/>
     </g>
     <g id="line2d_16">
      <g>
       <use xlink:href="#m00b910abcd" x="73.55" y="226.013498" style="stroke: #000000; stroke-width: 0.8"/>
      </g>
     </g>
     <g id="text_9">
      <!-- 0.6 -->
      <g transform="translate(37.924375 232.852091) scale(0.18 -0.18)">
       <use xlink:href="#DejaVuSans-30"/>
       <use xlink:href="#DejaVuSans-2e" transform="translate(63.623047 0)"/>
       <use xlink:href="#DejaVuSans-36" transform="translate(95.410156 0)"/>
      </g>
     </g>
    </g>
    <g id="ytick_3">
     <g id="line2d_17">
      <path d="M 73.55 172.902887 
L 437.567727 172.902887 
" clip-path="url(#p8d44aa06a9)" style="fill: none; stroke: #b0b0b0; stroke-width: 0.8; stroke-linecap: square"/>
     </g>
     <g id="line2d_18">
      <g>
       <use xlink:href="#m00b910abcd" x="73.55" y="172.902887" style="stroke: #000000; stroke-width: 0.8"/>
      </g>
     </g>
     <g id="text_10">
      <!-- 0.7 -->
      <g transform="translate(37.924375 179.741481) scale(0.18 -0.18)">
       <defs>
        <path id="DejaVuSans-37" d="M 525 4666 
L 3525 4666 
L 3525 4397 
L 1831 0 
L 1172 0 
L 2766 4134 
L 525 4134 
L 525 4666 
z
" transform="scale(0.015625)"/>
       </defs>
       <use xlink:href="#DejaVuSans-30"/>
       <use xlink:href="#DejaVuSans-2e" transform="translate(63.623047 0)"/>
       <use xlink:href="#DejaVuSans-37" transform="translate(95.410156 0)"/>
      </g>
     </g>
    </g>
    <g id="ytick_4">
     <g id="line2d_19">
      <path d="M 73.55 119.792277 
L 437.567727 119.792277 
" clip-path="url(#p8d44aa06a9)" style="fill: none; stroke: #b0b0b0; stroke-width: 0.8; stroke-linecap: square"/>
     </g>
     <g id="line2d_20">
      <g>
       <use xlink:href="#m00b910abcd" x="73.55" y="119.792277" style="stroke: #000000; stroke-width: 0.8"/>
      </g>
     </g>
     <g id="text_11">
      <!-- 0.8 -->
      <g transform="translate(37.924375 126.630871) scale(0.18 -0.18)">
       <use xlink:href="#DejaVuSans-30"/>
       <use xlink:href="#DejaVuSans-2e" transform="translate(63.623047 0)"/>
       <use xlink:href="#DejaVuSans-38" transform="translate(95.410156 0)"/>
      </g>
     </g>
    </g>
    <g id="ytick_5">
     <g id="line2d_21">
      <path d="M 73.55 66.681666 
L 437.567727 66.681666 
" clip-path="url(#p8d44aa06a9)" style="fill: none; stroke: #b0b0b0; stroke-width: 0.8; stroke-linecap: square"/>
     </g>
     <g id="line2d_22">
      <g>
       <use xlink:href="#m00b910abcd" x="73.55" y="66.681666" style="stroke: #000000; stroke-width: 0.8"/>
      </g>
     </g>
     <g id="text_12">
      <!-- 0.9 -->
      <g transform="translate(37.924375 73.52026) scale(0.18 -0.18)">
       <use xlink:href="#DejaVuSans-30"/>
       <use xlink:href="#DejaVuSans-2e" transform="translate(63.623047 0)"/>
       <use xlink:href="#DejaVuSans-39" transform="translate(95.410156 0)"/>
      </g>
     </g>
    </g>
    <g id="text_13">
     <!-- Average Fidelity -->
     <g transform="translate(30.596875 215.41625) rotate(-90) scale(0.16 -0.16)">
      <defs>
       <path id="DejaVuSans-41" d="M 2188 4044 
L 1331 1722 
L 3047 1722 
L 2188 4044 
z
M 1831 4666 
L 2547 4666 
L 4325 0 
L 3669 0 
L 3244 1197 
L 1141 1197 
L 716 0 
L 50 0 
L 1831 4666 
z
" transform="scale(0.015625)"/>
       <path id="DejaVuSans-76" d="M 191 3500 
L 800 3500 
L 1894 563 
L 2988 3500 
L 3597 3500 
L 2284 0 
L 1503 0 
L 191 3500 
z
" transform="scale(0.015625)"/>
       <path id="DejaVuSans-72" d="M 2631 2963 
Q 2534 3019 2420 3045 
Q 2306 3072 2169 3072 
Q 1681 3072 1420 2755 
Q 1159 2438 1159 1844 
L 1159 0 
L 581 0 
L 581 3500 
L 1159 3500 
L 1159 2956 
Q 1341 3275 1631 3429 
Q 1922 3584 2338 3584 
Q 2397 3584 2469 3576 
Q 2541 3569 2628 3553 
L 2631 2963 
z
" transform="scale(0.015625)"/>
       <path id="DejaVuSans-67" d="M 2906 1791 
Q 2906 2416 2648 2759 
Q 2391 3103 1925 3103 
Q 1463 3103 1205 2759 
Q 947 2416 947 1791 
Q 947 1169 1205 825 
Q 1463 481 1925 481 
Q 2391 481 2648 825 
Q 2906 1169 2906 1791 
z
M 3481 434 
Q 3481 -459 3084 -895 
Q 2688 -1331 1869 -1331 
Q 1566 -1331 1297 -1286 
Q 1028 -1241 775 -1147 
L 775 -588 
Q 1028 -725 1275 -790 
Q 1522 -856 1778 -856 
Q 2344 -856 2625 -561 
Q 2906 -266 2906 331 
L 2906 616 
Q 2728 306 2450 153 
Q 2172 0 1784 0 
Q 1141 0 747 490 
Q 353 981 353 1791 
Q 353 2603 747 3093 
Q 1141 3584 1784 3584 
Q 2172 3584 2450 3431 
Q 2728 3278 2906 2969 
L 2906 3500 
L 3481 3500 
L 3481 434 
z
" transform="scale(0.015625)"/>
      </defs>
      <use xlink:href="#DejaVuSans-41"/>
      <use xlink:href="#DejaVuSans-76" transform="translate(62.533203 0)"/>
      <use xlink:href="#DejaVuSans-65" transform="translate(121.712891 0)"/>
      <use xlink:href="#DejaVuSans-72" transform="translate(183.236328 0)"/>
      <use xlink:href="#DejaVuSans-61" transform="translate(224.349609 0)"/>
      <use xlink:href="#DejaVuSans-67" transform="translate(285.628906 0)"/>
      <use xlink:href="#DejaVuSans-65" transform="translate(349.105469 0)"/>
      <use xlink:href="#DejaVuSans-20" transform="translate(410.628906 0)"/>
      <use xlink:href="#DejaVuSans-46" transform="translate(442.416016 0)"/>
      <use xlink:href="#DejaVuSans-69" transform="translate(492.685547 0)"/>
      <use xlink:href="#DejaVuSans-64" transform="translate(520.46875 0)"/>
      <use xlink:href="#DejaVuSans-65" transform="translate(583.945312 0)"/>
      <use xlink:href="#DejaVuSans-6c" transform="translate(645.46875 0)"/>
      <use xlink:href="#DejaVuSans-69" transform="translate(673.251953 0)"/>
      <use xlink:href="#DejaVuSans-74" transform="translate(701.035156 0)"/>
      <use xlink:href="#DejaVuSans-79" transform="translate(740.244141 0)"/>
     </g>
    </g>
   </g>
   <g id="LineCollection_1">
    <path d="M 90.09626 271.478182 
L 90.09626 200.178269 
" clip-path="url(#p8d44aa06a9)" style="fill: none; stroke: #1f77b4; stroke-width: 1.5"/>
    <path d="M 123.188781 257.777636 
L 123.188781 191.886927 
" clip-path="url(#p8d44aa06a9)" style="fill: none; stroke: #1f77b4; stroke-width: 1.5"/>
    <path d="M 156.281302 202.075292 
L 156.281302 143.730482 
" clip-path="url(#p8d44aa06a9)" style="fill: none; stroke: #1f77b4; stroke-width: 1.5"/>
    <path d="M 189.373822 221.843192 
L 189.373822 165.891794 
" clip-path="url(#p8d44aa06a9)" style="fill: none; stroke: #1f77b4; stroke-width: 1.5"/>
    <path d="M 222.466343 264.244667 
L 222.466343 201.19296 
" clip-path="url(#p8d44aa06a9)" style="fill: none; stroke: #1f77b4; stroke-width: 1.5"/>
    <path d="M 255.558864 188.64327 
L 255.558864 129.505371 
" clip-path="url(#p8d44aa06a9)" style="fill: none; stroke: #1f77b4; stroke-width: 1.5"/>
    <path d="M 288.651384 152.536232 
L 288.651384 100.851502 
" clip-path="url(#p8d44aa06a9)" style="fill: none; stroke: #1f77b4; stroke-width: 1.5"/>
    <path d="M 321.743905 183.872883 
L 321.743905 130.209814 
" clip-path="url(#p8d44aa06a9)" style="fill: none; stroke: #1f77b4; stroke-width: 1.5"/>
    <path d="M 354.836426 128.863015 
L 354.836426 82.658397 
" clip-path="url(#p8d44aa06a9)" style="fill: none; stroke: #1f77b4; stroke-width: 1.5"/>
    <path d="M 387.928946 153.249933 
L 387.928946 104.876194 
" clip-path="url(#p8d44aa06a9)" style="fill: none; stroke: #1f77b4; stroke-width: 1.5"/>
    <path d="M 421.021467 138.976813 
L 421.021467 92.660613 
" clip-path="url(#p8d44aa06a9)" style="fill: none; stroke: #1f77b4; stroke-width: 1.5"/>
   </g>
   <g id="line2d_23">
    <defs>
     <path id="m78cb7d859d" d="M 3 0 
L -3 -0 
" style="stroke: #1f77b4"/>
    </defs>
    <g clip-path="url(#p8d44aa06a9)">
     <use xlink:href="#m78cb7d859d" x="90.09626" y="271.478182" style="fill: #1f77b4; stroke: #1f77b4"/>
     <use xlink:href="#m78cb7d859d" x="123.188781" y="257.777636" style="fill: #1f77b4; stroke: #1f77b4"/>
     <use xlink:href="#m78cb7d859d" x="156.281302" y="202.075292" style="fill: #1f77b4; stroke: #1f77b4"/>
     <use xlink:href="#m78cb7d859d" x="189.373822" y="221.843192" style="fill: #1f77b4; stroke: #1f77b4"/>
     <use xlink:href="#m78cb7d859d" x="222.466343" y="264.244667" style="fill: #1f77b4; stroke: #1f77b4"/>
     <use xlink:href="#m78cb7d859d" x="255.558864" y="188.64327" style="fill: #1f77b4; stroke: #1f77b4"/>
     <use xlink:href="#m78cb7d859d" x="288.651384" y="152.536232" style="fill: #1f77b4; stroke: #1f77b4"/>
     <use xlink:href="#m78cb7d859d" x="321.743905" y="183.872883" style="fill: #1f77b4; stroke: #1f77b4"/>
     <use xlink:href="#m78cb7d859d" x="354.836426" y="128.863015" style="fill: #1f77b4; stroke: #1f77b4"/>
     <use xlink:href="#m78cb7d859d" x="387.928946" y="153.249933" style="fill: #1f77b4; stroke: #1f77b4"/>
     <use xlink:href="#m78cb7d859d" x="421.021467" y="138.976813" style="fill: #1f77b4; stroke: #1f77b4"/>
    </g>
   </g>
   <g id="line2d_24">
    <g clip-path="url(#p8d44aa06a9)">
     <use xlink:href="#m78cb7d859d" x="90.09626" y="200.178269" style="fill: #1f77b4; stroke: #1f77b4"/>
     <use xlink:href="#m78cb7d859d" x="123.188781" y="191.886927" style="fill: #1f77b4; stroke: #1f77b4"/>
     <use xlink:href="#m78cb7d859d" x="156.281302" y="143.730482" style="fill: #1f77b4; stroke: #1f77b4"/>
     <use xlink:href="#m78cb7d859d" x="189.373822" y="165.891794" style="fill: #1f77b4; stroke: #1f77b4"/>
     <use xlink:href="#m78cb7d859d" x="222.466343" y="201.19296" style="fill: #1f77b4; stroke: #1f77b4"/>
     <use xlink:href="#m78cb7d859d" x="255.558864" y="129.505371" style="fill: #1f77b4; stroke: #1f77b4"/>
     <use xlink:href="#m78cb7d859d" x="288.651384" y="100.851502" style="fill: #1f77b4; stroke: #1f77b4"/>
     <use xlink:href="#m78cb7d859d" x="321.743905" y="130.209814" style="fill: #1f77b4; stroke: #1f77b4"/>
     <use xlink:href="#m78cb7d859d" x="354.836426" y="82.658397" style="fill: #1f77b4; stroke: #1f77b4"/>
     <use xlink:href="#m78cb7d859d" x="387.928946" y="104.876194" style="fill: #1f77b4; stroke: #1f77b4"/>
     <use xlink:href="#m78cb7d859d" x="421.021467" y="92.660613" style="fill: #1f77b4; stroke: #1f77b4"/>
    </g>
   </g>
   <g id="line2d_25">
    <path d="M 90.09626 230.51962 
L 421.021467 106.498874 
" clip-path="url(#p8d44aa06a9)" style="fill: none; stroke-dasharray: 5.55,2.4; stroke-dashoffset: 0; stroke: #ff7f0e; stroke-width: 1.5"/>
   </g>
   <g id="LineCollection_2">
    <path d="M 90.09626 165.361531 
L 90.09626 112.906542 
" clip-path="url(#p8d44aa06a9)" style="fill: none; stroke: #2ca02c; stroke-width: 1.5"/>
    <path d="M 123.188781 168.474698 
L 123.188781 113.80973 
" clip-path="url(#p8d44aa06a9)" style="fill: none; stroke: #2ca02c; stroke-width: 1.5"/>
    <path d="M 156.281302 193.758266 
L 156.281302 137.884679 
" clip-path="url(#p8d44aa06a9)" style="fill: none; stroke: #2ca02c; stroke-width: 1.5"/>
    <path d="M 189.373822 171.491216 
L 189.373822 118.031134 
" clip-path="url(#p8d44aa06a9)" style="fill: none; stroke: #2ca02c; stroke-width: 1.5"/>
    <path d="M 222.466343 152.928439 
L 222.466343 101.753539 
" clip-path="url(#p8d44aa06a9)" style="fill: none; stroke: #2ca02c; stroke-width: 1.5"/>
    <path d="M 255.558864 144.298594 
L 255.558864 92.293813 
" clip-path="url(#p8d44aa06a9)" style="fill: none; stroke: #2ca02c; stroke-width: 1.5"/>
    <path d="M 288.651384 116.438176 
L 288.651384 73.85976 
" clip-path="url(#p8d44aa06a9)" style="fill: none; stroke: #2ca02c; stroke-width: 1.5"/>
    <path d="M 321.743905 144.836366 
L 321.743905 96.127684 
" clip-path="url(#p8d44aa06a9)" style="fill: none; stroke: #2ca02c; stroke-width: 1.5"/>
    <path d="M 354.836426 175.857861 
L 354.836426 123.248445 
" clip-path="url(#p8d44aa06a9)" style="fill: none; stroke: #2ca02c; stroke-width: 1.5"/>
    <path d="M 387.928946 172.336785 
L 387.928946 120.358379 
" clip-path="url(#p8d44aa06a9)" style="fill: none; stroke: #2ca02c; stroke-width: 1.5"/>
    <path d="M 421.021467 122.676583 
L 421.021467 73.407886 
" clip-path="url(#p8d44aa06a9)" style="fill: none; stroke: #2ca02c; stroke-width: 1.5"/>
   </g>
   <g id="line2d_26">
    <defs>
     <path id="m0ce6fa1b7b" d="M 3 0 
L -3 -0 
" style="stroke: #2ca02c"/>
    </defs>
    <g clip-path="url(#p8d44aa06a9)">
     <use xlink:href="#m0ce6fa1b7b" x="90.09626" y="165.361531" style="fill: #2ca02c; stroke: #2ca02c"/>
     <use xlink:href="#m0ce6fa1b7b" x="123.188781" y="168.474698" style="fill: #2ca02c; stroke: #2ca02c"/>
     <use xlink:href="#m0ce6fa1b7b" x="156.281302" y="193.758266" style="fill: #2ca02c; stroke: #2ca02c"/>
     <use xlink:href="#m0ce6fa1b7b" x="189.373822" y="171.491216" style="fill: #2ca02c; stroke: #2ca02c"/>
     <use xlink:href="#m0ce6fa1b7b" x="222.466343" y="152.928439" style="fill: #2ca02c; stroke: #2ca02c"/>
     <use xlink:href="#m0ce6fa1b7b" x="255.558864" y="144.298594" style="fill: #2ca02c; stroke: #2ca02c"/>
     <use xlink:href="#m0ce6fa1b7b" x="288.651384" y="116.438176" style="fill: #2ca02c; stroke: #2ca02c"/>
     <use xlink:href="#m0ce6fa1b7b" x="321.743905" y="144.836366" style="fill: #2ca02c; stroke: #2ca02c"/>
     <use xlink:href="#m0ce6fa1b7b" x="354.836426" y="175.857861" style="fill: #2ca02c; stroke: #2ca02c"/>
     <use xlink:href="#m0ce6fa1b7b" x="387.928946" y="172.336785" style="fill: #2ca02c; stroke: #2ca02c"/>
     <use xlink:href="#m0ce6fa1b7b" x="421.021467" y="122.676583" style="fill: #2ca02c; stroke: #2ca02c"/>
    </g>
   </g>
   <g id="line2d_27">
    <g clip-path="url(#p8d44aa06a9)">
     <use xlink:href="#m0ce6fa1b7b" x="90.09626" y="112.906542" style="fill: #2ca02c; stroke: #2ca02c"/>
     <use xlink:href="#m0ce6fa1b7b" x="123.188781" y="113.80973" style="fill: #2ca02c; stroke: #2ca02c"/>
     <use xlink:href="#m0ce6fa1b7b" x="156.281302" y="137.884679" style="fill: #2ca02c; stroke: #2ca02c"/>
     <use xlink:href="#m0ce6fa1b7b" x="189.373822" y="118.031134" style="fill: #2ca02c; stroke: #2ca02c"/>
     <use xlink:href="#m0ce6fa1b7b" x="222.466343" y="101.753539" style="fill: #2ca02c; stroke: #2ca02c"/>
     <use xlink:href="#m0ce6fa1b7b" x="255.558864" y="92.293813" style="fill: #2ca02c; stroke: #2ca02c"/>
     <use xlink:href="#m0ce6fa1b7b" x="288.651384" y="73.85976" style="fill: #2ca02c; stroke: #2ca02c"/>
     <use xlink:href="#m0ce6fa1b7b" x="321.743905" y="96.127684" style="fill: #2ca02c; stroke: #2ca02c"/>
     <use xlink:href="#m0ce6fa1b7b" x="354.836426" y="123.248445" style="fill: #2ca02c; stroke: #2ca02c"/>
     <use xlink:href="#m0ce6fa1b7b" x="387.928946" y="120.358379" style="fill: #2ca02c; stroke: #2ca02c"/>
     <use xlink:href="#m0ce6fa1b7b" x="421.021467" y="73.407886" style="fill: #2ca02c; stroke: #2ca02c"/>
    </g>
   </g>
   <g id="line2d_28">
    <path d="M 90.09626 145.742406 
L 421.021467 117.179422 
" clip-path="url(#p8d44aa06a9)" style="fill: none; stroke-dasharray: 5.55,2.4; stroke-dashoffset: 0; stroke: #d62728; stroke-width: 1.5"/>
   </g>
   <g id="LineCollection_3">
    <path d="M 90.09626 240.676071 
L 90.09626 155.289724 
" clip-path="url(#p8d44aa06a9)" style="fill: none; stroke: #9467bd; stroke-width: 1.5"/>
    <path d="M 123.188781 266.542702 
L 123.188781 175.526054 
" clip-path="url(#p8d44aa06a9)" style="fill: none; stroke: #9467bd; stroke-width: 1.5"/>
    <path d="M 156.281302 267.732742 
L 156.281302 177.856603 
" clip-path="url(#p8d44aa06a9)" style="fill: none; stroke: #9467bd; stroke-width: 1.5"/>
    <path d="M 189.373822 222.257849 
L 189.373822 141.683255 
" clip-path="url(#p8d44aa06a9)" style="fill: none; stroke: #9467bd; stroke-width: 1.5"/>
    <path d="M 222.466343 173.948428 
L 222.466343 103.125968 
" clip-path="url(#p8d44aa06a9)" style="fill: none; stroke: #9467bd; stroke-width: 1.5"/>
    <path d="M 255.558864 216.025018 
L 255.558864 137.951619 
" clip-path="url(#p8d44aa06a9)" style="fill: none; stroke: #9467bd; stroke-width: 1.5"/>
    <path d="M 288.651384 161.762196 
L 288.651384 97.738836 
" clip-path="url(#p8d44aa06a9)" style="fill: none; stroke: #9467bd; stroke-width: 1.5"/>
    <path d="M 321.743905 142.569194 
L 321.743905 76.361234 
" clip-path="url(#p8d44aa06a9)" style="fill: none; stroke: #9467bd; stroke-width: 1.5"/>
    <path d="M 354.836426 167.077207 
L 354.836426 99.062652 
" clip-path="url(#p8d44aa06a9)" style="fill: none; stroke: #9467bd; stroke-width: 1.5"/>
    <path d="M 387.928946 159.630979 
L 387.928946 93.513731 
" clip-path="url(#p8d44aa06a9)" style="fill: none; stroke: #9467bd; stroke-width: 1.5"/>
    <path d="M 421.021467 77.408925 
L 421.021467 31.441818 
" clip-path="url(#p8d44aa06a9)" style="fill: none; stroke: #9467bd; stroke-width: 1.5"/>
   </g>
   <g id="line2d_29">
    <defs>
     <path id="md96440b782" d="M 3 0 
L -3 -0 
" style="stroke: #9467bd"/>
    </defs>
    <g clip-path="url(#p8d44aa06a9)">
     <use xlink:href="#md96440b782" x="90.09626" y="240.676071" style="fill: #9467bd; stroke: #9467bd"/>
     <use xlink:href="#md96440b782" x="123.188781" y="266.542702" style="fill: #9467bd; stroke: #9467bd"/>
     <use xlink:href="#md96440b782" x="156.281302" y="267.732742" style="fill: #9467bd; stroke: #9467bd"/>
     <use xlink:href="#md96440b782" x="189.373822" y="222.257849" style="fill: #9467bd; stroke: #9467bd"/>
     <use xlink:href="#md96440b782" x="222.466343" y="173.948428" style="fill: #9467bd; stroke: #9467bd"/>
     <use xlink:href="#md96440b782" x="255.558864" y="216.025018" style="fill: #9467bd; stroke: #9467bd"/>
     <use xlink:href="#md96440b782" x="288.651384" y="161.762196" style="fill: #9467bd; stroke: #9467bd"/>
     <use xlink:href="#md96440b782" x="321.743905" y="142.569194" style="fill: #9467bd; stroke: #9467bd"/>
     <use xlink:href="#md96440b782" x="354.836426" y="167.077207" style="fill: #9467bd; stroke: #9467bd"/>
     <use xlink:href="#md96440b782" x="387.928946" y="159.630979" style="fill: #9467bd; stroke: #9467bd"/>
     <use xlink:href="#md96440b782" x="421.021467" y="77.408925" style="fill: #9467bd; stroke: #9467bd"/>
    </g>
   </g>
   <g id="line2d_30">
    <g clip-path="url(#p8d44aa06a9)">
     <use xlink:href="#md96440b782" x="90.09626" y="155.289724" style="fill: #9467bd; stroke: #9467bd"/>
     <use xlink:href="#md96440b782" x="123.188781" y="175.526054" style="fill: #9467bd; stroke: #9467bd"/>
     <use xlink:href="#md96440b782" x="156.281302" y="177.856603" style="fill: #9467bd; stroke: #9467bd"/>
     <use xlink:href="#md96440b782" x="189.373822" y="141.683255" style="fill: #9467bd; stroke: #9467bd"/>
     <use xlink:href="#md96440b782" x="222.466343" y="103.125968" style="fill: #9467bd; stroke: #9467bd"/>
     <use xlink:href="#md96440b782" x="255.558864" y="137.951619" style="fill: #9467bd; stroke: #9467bd"/>
     <use xlink:href="#md96440b782" x="288.651384" y="97.738836" style="fill: #9467bd; stroke: #9467bd"/>
     <use xlink:href="#md96440b782" x="321.743905" y="76.361234" style="fill: #9467bd; stroke: #9467bd"/>
     <use xlink:href="#md96440b782" x="354.836426" y="99.062652" style="fill: #9467bd; stroke: #9467bd"/>
     <use xlink:href="#md96440b782" x="387.928946" y="93.513731" style="fill: #9467bd; stroke: #9467bd"/>
     <use xlink:href="#md96440b782" x="421.021467" y="31.441818" style="fill: #9467bd; stroke: #9467bd"/>
    </g>
   </g>
   <g id="line2d_31">
    <path d="M 90.09626 222.899551 
L 421.021467 84.844341 
" clip-path="url(#p8d44aa06a9)" style="fill: none; stroke-dasharray: 5.55,2.4; stroke-dashoffset: 0; stroke: #8c564b; stroke-width: 1.5"/>
   </g>
   <g id="line2d_32">
    <path d="M 90.09626 235.828225 
L 123.188781 224.832281 
L 156.281302 172.902887 
L 189.373822 193.867493 
L 222.466343 232.718813 
L 255.558864 159.07432 
L 288.651384 126.693867 
L 321.743905 157.041349 
L 354.836426 105.760706 
L 387.928946 129.063064 
L 421.021467 115.818713 
" clip-path="url(#p8d44aa06a9)" style="fill: none; stroke: #1f77b4; stroke-width: 1.5; stroke-linecap: square"/>
    <defs>
     <path id="m4e4f4550f1" d="M 0 3 
C 0.795609 3 1.55874 2.683901 2.12132 2.12132 
C 2.683901 1.55874 3 0.795609 3 0 
C 3 -0.795609 2.683901 -1.55874 2.12132 -2.12132 
C 1.55874 -2.683901 0.795609 -3 0 -3 
C -0.795609 -3 -1.55874 -2.683901 -2.12132 -2.12132 
C -2.683901 -1.55874 -3 -0.795609 -3 0 
C -3 0.795609 -2.683901 1.55874 -2.12132 2.12132 
C -1.55874 2.683901 -0.795609 3 0 3 
z
" style="stroke: #1f77b4"/>
    </defs>
    <g clip-path="url(#p8d44aa06a9)">
     <use xlink:href="#m4e4f4550f1" x="90.09626" y="235.828225" style="fill: #1f77b4; stroke: #1f77b4"/>
     <use xlink:href="#m4e4f4550f1" x="123.188781" y="224.832281" style="fill: #1f77b4; stroke: #1f77b4"/>
     <use xlink:href="#m4e4f4550f1" x="156.281302" y="172.902887" style="fill: #1f77b4; stroke: #1f77b4"/>
     <use xlink:href="#m4e4f4550f1" x="189.373822" y="193.867493" style="fill: #1f77b4; stroke: #1f77b4"/>
     <use xlink:href="#m4e4f4550f1" x="222.466343" y="232.718813" style="fill: #1f77b4; stroke: #1f77b4"/>
     <use xlink:href="#m4e4f4550f1" x="255.558864" y="159.07432" style="fill: #1f77b4; stroke: #1f77b4"/>
     <use xlink:href="#m4e4f4550f1" x="288.651384" y="126.693867" style="fill: #1f77b4; stroke: #1f77b4"/>
     <use xlink:href="#m4e4f4550f1" x="321.743905" y="157.041349" style="fill: #1f77b4; stroke: #1f77b4"/>
     <use xlink:href="#m4e4f4550f1" x="354.836426" y="105.760706" style="fill: #1f77b4; stroke: #1f77b4"/>
     <use xlink:href="#m4e4f4550f1" x="387.928946" y="129.063064" style="fill: #1f77b4; stroke: #1f77b4"/>
     <use xlink:href="#m4e4f4550f1" x="421.021467" y="115.818713" style="fill: #1f77b4; stroke: #1f77b4"/>
    </g>
   </g>
   <g id="line2d_33">
    <path d="M 90.09626 139.134037 
L 123.188781 141.142214 
L 156.281302 165.821472 
L 189.373822 144.761175 
L 222.466343 127.340989 
L 255.558864 118.296203 
L 288.651384 95.148968 
L 321.743905 120.482025 
L 354.836426 149.553153 
L 387.928946 146.347582 
L 421.021467 98.042234 
" clip-path="url(#p8d44aa06a9)" style="fill: none; stroke: #2ca02c; stroke-width: 1.5; stroke-linecap: square"/>
    <defs>
     <path id="m0388828194" d="M 0 3 
C 0.795609 3 1.55874 2.683901 2.12132 2.12132 
C 2.683901 1.55874 3 0.795609 3 0 
C 3 -0.795609 2.683901 -1.55874 2.12132 -2.12132 
C 1.55874 -2.683901 0.795609 -3 0 -3 
C -0.795609 -3 -1.55874 -2.683901 -2.12132 -2.12132 
C -2.683901 -1.55874 -3 -0.795609 -3 0 
C -3 0.795609 -2.683901 1.55874 -2.12132 2.12132 
C -1.55874 2.683901 -0.795609 3 0 3 
z
" style="stroke: #2ca02c"/>
    </defs>
    <g clip-path="url(#p8d44aa06a9)">
     <use xlink:href="#m0388828194" x="90.09626" y="139.134037" style="fill: #2ca02c; stroke: #2ca02c"/>
     <use xlink:href="#m0388828194" x="123.188781" y="141.142214" style="fill: #2ca02c; stroke: #2ca02c"/>
     <use xlink:href="#m0388828194" x="156.281302" y="165.821472" style="fill: #2ca02c; stroke: #2ca02c"/>
     <use xlink:href="#m0388828194" x="189.373822" y="144.761175" style="fill: #2ca02c; stroke: #2ca02c"/>
     <use xlink:href="#m0388828194" x="222.466343" y="127.340989" style="fill: #2ca02c; stroke: #2ca02c"/>
     <use xlink:href="#m0388828194" x="255.558864" y="118.296203" style="fill: #2ca02c; stroke: #2ca02c"/>
     <use xlink:href="#m0388828194" x="288.651384" y="95.148968" style="fill: #2ca02c; stroke: #2ca02c"/>
     <use xlink:href="#m0388828194" x="321.743905" y="120.482025" style="fill: #2ca02c; stroke: #2ca02c"/>
     <use xlink:href="#m0388828194" x="354.836426" y="149.553153" style="fill: #2ca02c; stroke: #2ca02c"/>
     <use xlink:href="#m0388828194" x="387.928946" y="146.347582" style="fill: #2ca02c; stroke: #2ca02c"/>
     <use xlink:href="#m0388828194" x="421.021467" y="98.042234" style="fill: #2ca02c; stroke: #2ca02c"/>
    </g>
   </g>
   <g id="line2d_34">
    <path d="M 90.09626 197.982898 
L 123.188781 221.034378 
L 156.281302 222.794673 
L 189.373822 181.970552 
L 222.466343 138.537198 
L 255.558864 176.988319 
L 288.651384 129.750516 
L 321.743905 109.465214 
L 354.836426 133.069929 
L 387.928946 126.572355 
L 421.021467 54.425372 
" clip-path="url(#p8d44aa06a9)" style="fill: none; stroke: #9467bd; stroke-width: 1.5; stroke-linecap: square"/>
    <defs>
     <path id="m9f5f4f5be0" d="M 0 3 
C 0.795609 3 1.55874 2.683901 2.12132 2.12132 
C 2.683901 1.55874 3 0.795609 3 0 
C 3 -0.795609 2.683901 -1.55874 2.12132 -2.12132 
C 1.55874 -2.683901 0.795609 -3 0 -3 
C -0.795609 -3 -1.55874 -2.683901 -2.12132 -2.12132 
C -2.683901 -1.55874 -3 -0.795609 -3 0 
C -3 0.795609 -2.683901 1.55874 -2.12132 2.12132 
C -1.55874 2.683901 -0.795609 3 0 3 
z
" style="stroke: #9467bd"/>
    </defs>
    <g clip-path="url(#p8d44aa06a9)">
     <use xlink:href="#m9f5f4f5be0" x="90.09626" y="197.982898" style="fill: #9467bd; stroke: #9467bd"/>
     <use xlink:href="#m9f5f4f5be0" x="123.188781" y="221.034378" style="fill: #9467bd; stroke: #9467bd"/>
     <use xlink:href="#m9f5f4f5be0" x="156.281302" y="222.794673" style="fill: #9467bd; stroke: #9467bd"/>
     <use xlink:href="#m9f5f4f5be0" x="189.373822" y="181.970552" style="fill: #9467bd; stroke: #9467bd"/>
     <use xlink:href="#m9f5f4f5be0" x="222.466343" y="138.537198" style="fill: #9467bd; stroke: #9467bd"/>
     <use xlink:href="#m9f5f4f5be0" x="255.558864" y="176.988319" style="fill: #9467bd; stroke: #9467bd"/>
     <use xlink:href="#m9f5f4f5be0" x="288.651384" y="129.750516" style="fill: #9467bd; stroke: #9467bd"/>
     <use xlink:href="#m9f5f4f5be0" x="321.743905" y="109.465214" style="fill: #9467bd; stroke: #9467bd"/>
     <use xlink:href="#m9f5f4f5be0" x="354.836426" y="133.069929" style="fill: #9467bd; stroke: #9467bd"/>
     <use xlink:href="#m9f5f4f5be0" x="387.928946" y="126.572355" style="fill: #9467bd; stroke: #9467bd"/>
     <use xlink:href="#m9f5f4f5be0" x="421.021467" y="54.425372" style="fill: #9467bd; stroke: #9467bd"/>
    </g>
   </g>
   <g id="patch_3">
    <path d="M 73.55 283.48 
L 73.55 19.44 
" style="fill: none; stroke: #000000; stroke-width: 0.8; stroke-linejoin: miter; stroke-linecap: square"/>
   </g>
   <g id="patch_4">
    <path d="M 437.567727 283.48 
L 437.567727 19.44 
" style="fill: none; stroke: #000000; stroke-width: 0.8; stroke-linejoin: miter; stroke-linecap: square"/>
   </g>
   <g id="patch_5">
    <path d="M 73.55 283.48 
L 437.567727 283.48 
" style="fill: none; stroke: #000000; stroke-width: 0.8; stroke-linejoin: miter; stroke-linecap: square"/>
   </g>
   <g id="patch_6">
    <path d="M 73.55 19.44 
L 437.567727 19.44 
" style="fill: none; stroke: #000000; stroke-width: 0.8; stroke-linejoin: miter; stroke-linecap: square"/>
   </g>
   <g id="text_14">
    <!-- Input fidelity 0.725 -->
    <g transform="translate(179.500114 13.44) scale(0.16 -0.16)">
     <defs>
      <path id="DejaVuSans-49" d="M 628 4666 
L 1259 4666 
L 1259 0 
L 628 0 
L 628 4666 
z
" transform="scale(0.015625)"/>
      <path id="DejaVuSans-6e" d="M 3513 2113 
L 3513 0 
L 2938 0 
L 2938 2094 
Q 2938 2591 2744 2837 
Q 2550 3084 2163 3084 
Q 1697 3084 1428 2787 
Q 1159 2491 1159 1978 
L 1159 0 
L 581 0 
L 581 3500 
L 1159 3500 
L 1159 2956 
Q 1366 3272 1645 3428 
Q 1925 3584 2291 3584 
Q 2894 3584 3203 3211 
Q 3513 2838 3513 2113 
z
" transform="scale(0.015625)"/>
      <path id="DejaVuSans-70" d="M 1159 525 
L 1159 -1331 
L 581 -1331 
L 581 3500 
L 1159 3500 
L 1159 2969 
Q 1341 3281 1617 3432 
Q 1894 3584 2278 3584 
Q 2916 3584 3314 3078 
Q 3713 2572 3713 1747 
Q 3713 922 3314 415 
Q 2916 -91 2278 -91 
Q 1894 -91 1617 61 
Q 1341 213 1159 525 
z
M 3116 1747 
Q 3116 2381 2855 2742 
Q 2594 3103 2138 3103 
Q 1681 3103 1420 2742 
Q 1159 2381 1159 1747 
Q 1159 1113 1420 752 
Q 1681 391 2138 391 
Q 2594 391 2855 752 
Q 3116 1113 3116 1747 
z
" transform="scale(0.015625)"/>
      <path id="DejaVuSans-75" d="M 544 1381 
L 544 3500 
L 1119 3500 
L 1119 1403 
Q 1119 906 1312 657 
Q 1506 409 1894 409 
Q 2359 409 2629 706 
Q 2900 1003 2900 1516 
L 2900 3500 
L 3475 3500 
L 3475 0 
L 2900 0 
L 2900 538 
Q 2691 219 2414 64 
Q 2138 -91 1772 -91 
Q 1169 -91 856 284 
Q 544 659 544 1381 
z
M 1991 3584 
L 1991 3584 
z
" transform="scale(0.015625)"/>
      <path id="DejaVuSans-66" d="M 2375 4863 
L 2375 4384 
L 1825 4384 
Q 1516 4384 1395 4259 
Q 1275 4134 1275 3809 
L 1275 3500 
L 2222 3500 
L 2222 3053 
L 1275 3053 
L 1275 0 
L 697 0 
L 697 3053 
L 147 3053 
L 147 3500 
L 697 3500 
L 697 3744 
Q 697 4328 969 4595 
Q 1241 4863 1831 4863 
L 2375 4863 
z
" transform="scale(0.015625)"/>
     </defs>
     <use xlink:href="#DejaVuSans-49"/>
     <use xlink:href="#DejaVuSans-6e" transform="translate(29.492188 0)"/>
     <use xlink:href="#DejaVuSans-70" transform="translate(92.871094 0)"/>
     <use xlink:href="#DejaVuSans-75" transform="translate(156.347656 0)"/>
     <use xlink:href="#DejaVuSans-74" transform="translate(219.726562 0)"/>
     <use xlink:href="#DejaVuSans-20" transform="translate(258.935547 0)"/>
     <use xlink:href="#DejaVuSans-66" transform="translate(290.722656 0)"/>
     <use xlink:href="#DejaVuSans-69" transform="translate(325.927734 0)"/>
     <use xlink:href="#DejaVuSans-64" transform="translate(353.710938 0)"/>
     <use xlink:href="#DejaVuSans-65" transform="translate(417.1875 0)"/>
     <use xlink:href="#DejaVuSans-6c" transform="translate(478.710938 0)"/>
     <use xlink:href="#DejaVuSans-69" transform="translate(506.494141 0)"/>
     <use xlink:href="#DejaVuSans-74" transform="translate(534.277344 0)"/>
     <use xlink:href="#DejaVuSans-79" transform="translate(573.486328 0)"/>
     <use xlink:href="#DejaVuSans-20" transform="translate(632.666016 0)"/>
     <use xlink:href="#DejaVuSans-30" transform="translate(664.453125 0)"/>
     <use xlink:href="#DejaVuSans-2e" transform="translate(728.076172 0)"/>
     <use xlink:href="#DejaVuSans-37" transform="translate(759.863281 0)"/>
     <use xlink:href="#DejaVuSans-32" transform="translate(823.486328 0)"/>
     <use xlink:href="#DejaVuSans-35" transform="translate(887.109375 0)"/>
    </g>
   </g>
   <g id="legend_1">
    <g id="patch_7">
     <path d="M 283.167727 275.48 
L 426.367727 275.48 
Q 429.567727 275.48 429.567727 272.28 
L 429.567727 203.425 
Q 429.567727 200.225 426.367727 200.225 
L 283.167727 200.225 
Q 279.967727 200.225 279.967727 203.425 
L 279.967727 272.28 
Q 279.967727 275.48 283.167727 275.48 
z
" style="fill: #ffffff; opacity: 0.8; stroke: #cccccc; stroke-linejoin: miter"/>
    </g>
    <g id="LineCollection_4">
     <path d="M 302.367727 221.1825 
L 302.367727 205.1825 
" style="fill: none; stroke: #1f77b4; stroke-width: 1.5"/>
    </g>
    <g id="line2d_35">
     <g>
      <use xlink:href="#m78cb7d859d" x="302.367727" y="221.1825" style="fill: #1f77b4; stroke: #1f77b4"/>
     </g>
    </g>
    <g id="line2d_36">
     <g>
      <use xlink:href="#m78cb7d859d" x="302.367727" y="205.1825" style="fill: #1f77b4; stroke: #1f77b4"/>
     </g>
    </g>
    <g id="line2d_37">
     <path d="M 286.367727 213.1825 
L 318.367727 213.1825 
" style="fill: none; stroke: #1f77b4; stroke-width: 1.5; stroke-linecap: square"/>
    </g>
    <g id="line2d_38">
     <g>
      <use xlink:href="#m4e4f4550f1" x="302.367727" y="213.1825" style="fill: #1f77b4; stroke: #1f77b4"/>
     </g>
    </g>
    <g id="text_15">
     <!-- DEJMPS -->
     <g transform="translate(331.167727 218.7825) scale(0.16 -0.16)">
      <defs>
       <path id="DejaVuSans-44" d="M 1259 4147 
L 1259 519 
L 2022 519 
Q 2988 519 3436 956 
Q 3884 1394 3884 2338 
Q 3884 3275 3436 3711 
Q 2988 4147 2022 4147 
L 1259 4147 
z
M 628 4666 
L 1925 4666 
Q 3281 4666 3915 4102 
Q 4550 3538 4550 2338 
Q 4550 1131 3912 565 
Q 3275 0 1925 0 
L 628 0 
L 628 4666 
z
" transform="scale(0.015625)"/>
       <path id="DejaVuSans-45" d="M 628 4666 
L 3578 4666 
L 3578 4134 
L 1259 4134 
L 1259 2753 
L 3481 2753 
L 3481 2222 
L 1259 2222 
L 1259 531 
L 3634 531 
L 3634 0 
L 628 0 
L 628 4666 
z
" transform="scale(0.015625)"/>
       <path id="DejaVuSans-4a" d="M 628 4666 
L 1259 4666 
L 1259 325 
Q 1259 -519 939 -900 
Q 619 -1281 -91 -1281 
L -331 -1281 
L -331 -750 
L -134 -750 
Q 284 -750 456 -515 
Q 628 -281 628 325 
L 628 4666 
z
" transform="scale(0.015625)"/>
       <path id="DejaVuSans-4d" d="M 628 4666 
L 1569 4666 
L 2759 1491 
L 3956 4666 
L 4897 4666 
L 4897 0 
L 4281 0 
L 4281 4097 
L 3078 897 
L 2444 897 
L 1241 4097 
L 1241 0 
L 628 0 
L 628 4666 
z
" transform="scale(0.015625)"/>
       <path id="DejaVuSans-50" d="M 1259 4147 
L 1259 2394 
L 2053 2394 
Q 2494 2394 2734 2622 
Q 2975 2850 2975 3272 
Q 2975 3691 2734 3919 
Q 2494 4147 2053 4147 
L 1259 4147 
z
M 628 4666 
L 2053 4666 
Q 2838 4666 3239 4311 
Q 3641 3956 3641 3272 
Q 3641 2581 3239 2228 
Q 2838 1875 2053 1875 
L 1259 1875 
L 1259 0 
L 628 0 
L 628 4666 
z
" transform="scale(0.015625)"/>
       <path id="DejaVuSans-53" d="M 3425 4513 
L 3425 3897 
Q 3066 4069 2747 4153 
Q 2428 4238 2131 4238 
Q 1616 4238 1336 4038 
Q 1056 3838 1056 3469 
Q 1056 3159 1242 3001 
Q 1428 2844 1947 2747 
L 2328 2669 
Q 3034 2534 3370 2195 
Q 3706 1856 3706 1288 
Q 3706 609 3251 259 
Q 2797 -91 1919 -91 
Q 1588 -91 1214 -16 
Q 841 59 441 206 
L 441 856 
Q 825 641 1194 531 
Q 1563 422 1919 422 
Q 2459 422 2753 634 
Q 3047 847 3047 1241 
Q 3047 1584 2836 1778 
Q 2625 1972 2144 2069 
L 1759 2144 
Q 1053 2284 737 2584 
Q 422 2884 422 3419 
Q 422 4038 858 4394 
Q 1294 4750 2059 4750 
Q 2388 4750 2728 4690 
Q 3069 4631 3425 4513 
z
" transform="scale(0.015625)"/>
      </defs>
      <use xlink:href="#DejaVuSans-44"/>
      <use xlink:href="#DejaVuSans-45" transform="translate(77.001953 0)"/>
      <use xlink:href="#DejaVuSans-4a" transform="translate(140.185547 0)"/>
      <use xlink:href="#DejaVuSans-4d" transform="translate(169.677734 0)"/>
      <use xlink:href="#DejaVuSans-50" transform="translate(255.957031 0)"/>
      <use xlink:href="#DejaVuSans-53" transform="translate(316.259766 0)"/>
     </g>
    </g>
    <g id="LineCollection_5">
     <path d="M 302.367727 244.6675 
L 302.367727 228.6675 
" style="fill: none; stroke: #2ca02c; stroke-width: 1.5"/>
    </g>
    <g id="line2d_39">
     <g>
      <use xlink:href="#m0ce6fa1b7b" x="302.367727" y="244.6675" style="fill: #2ca02c; stroke: #2ca02c"/>
     </g>
    </g>
    <g id="line2d_40">
     <g>
      <use xlink:href="#m0ce6fa1b7b" x="302.367727" y="228.6675" style="fill: #2ca02c; stroke: #2ca02c"/>
     </g>
    </g>
    <g id="line2d_41">
     <path d="M 286.367727 236.6675 
L 318.367727 236.6675 
" style="fill: none; stroke: #2ca02c; stroke-width: 1.5; stroke-linecap: square"/>
    </g>
    <g id="line2d_42">
     <g>
      <use xlink:href="#m0388828194" x="302.367727" y="236.6675" style="fill: #2ca02c; stroke: #2ca02c"/>
     </g>
    </g>
    <g id="text_16">
     <!-- BBPSSW -->
     <g transform="translate(331.167727 242.2675) scale(0.16 -0.16)">
      <defs>
       <path id="DejaVuSans-42" d="M 1259 2228 
L 1259 519 
L 2272 519 
Q 2781 519 3026 730 
Q 3272 941 3272 1375 
Q 3272 1813 3026 2020 
Q 2781 2228 2272 2228 
L 1259 2228 
z
M 1259 4147 
L 1259 2741 
L 2194 2741 
Q 2656 2741 2882 2914 
Q 3109 3088 3109 3444 
Q 3109 3797 2882 3972 
Q 2656 4147 2194 4147 
L 1259 4147 
z
M 628 4666 
L 2241 4666 
Q 2963 4666 3353 4366 
Q 3744 4066 3744 3513 
Q 3744 3084 3544 2831 
Q 3344 2578 2956 2516 
Q 3422 2416 3680 2098 
Q 3938 1781 3938 1306 
Q 3938 681 3513 340 
Q 3088 0 2303 0 
L 628 0 
L 628 4666 
z
" transform="scale(0.015625)"/>
       <path id="DejaVuSans-57" d="M 213 4666 
L 850 4666 
L 1831 722 
L 2809 4666 
L 3519 4666 
L 4500 722 
L 5478 4666 
L 6119 4666 
L 4947 0 
L 4153 0 
L 3169 4050 
L 2175 0 
L 1381 0 
L 213 4666 
z
" transform="scale(0.015625)"/>
      </defs>
      <use xlink:href="#DejaVuSans-42"/>
      <use xlink:href="#DejaVuSans-42" transform="translate(68.603516 0)"/>
      <use xlink:href="#DejaVuSans-50" transform="translate(137.207031 0)"/>
      <use xlink:href="#DejaVuSans-53" transform="translate(197.509766 0)"/>
      <use xlink:href="#DejaVuSans-53" transform="translate(260.986328 0)"/>
      <use xlink:href="#DejaVuSans-57" transform="translate(324.462891 0)"/>
     </g>
    </g>
    <g id="LineCollection_6">
     <path d="M 302.367727 268.1525 
L 302.367727 252.1525 
" style="fill: none; stroke: #9467bd; stroke-width: 1.5"/>
    </g>
    <g id="line2d_43">
     <g>
      <use xlink:href="#md96440b782" x="302.367727" y="268.1525" style="fill: #9467bd; stroke: #9467bd"/>
     </g>
    </g>
    <g id="line2d_44">
     <g>
      <use xlink:href="#md96440b782" x="302.367727" y="252.1525" style="fill: #9467bd; stroke: #9467bd"/>
     </g>
    </g>
    <g id="line2d_45">
     <path d="M 286.367727 260.1525 
L 318.367727 260.1525 
" style="fill: none; stroke: #9467bd; stroke-width: 1.5; stroke-linecap: square"/>
    </g>
    <g id="line2d_46">
     <g>
      <use xlink:href="#m9f5f4f5be0" x="302.367727" y="260.1525" style="fill: #9467bd; stroke: #9467bd"/>
     </g>
    </g>
    <g id="text_17">
     <!-- EPL with $X_B$ -->
     <g transform="translate(331.167727 265.7525) scale(0.16 -0.16)">
      <defs>
       <path id="DejaVuSans-4c" d="M 628 4666 
L 1259 4666 
L 1259 531 
L 3531 531 
L 3531 0 
L 628 0 
L 628 4666 
z
" transform="scale(0.015625)"/>
       <path id="DejaVuSans-77" d="M 269 3500 
L 844 3500 
L 1563 769 
L 2278 3500 
L 2956 3500 
L 3675 769 
L 4391 3500 
L 4966 3500 
L 4050 0 
L 3372 0 
L 2619 2869 
L 1863 0 
L 1184 0 
L 269 3500 
z
" transform="scale(0.015625)"/>
       <path id="DejaVuSans-68" d="M 3513 2113 
L 3513 0 
L 2938 0 
L 2938 2094 
Q 2938 2591 2744 2837 
Q 2550 3084 2163 3084 
Q 1697 3084 1428 2787 
Q 1159 2491 1159 1978 
L 1159 0 
L 581 0 
L 581 4863 
L 1159 4863 
L 1159 2956 
Q 1366 3272 1645 3428 
Q 1925 3584 2291 3584 
Q 2894 3584 3203 3211 
Q 3513 2838 3513 2113 
z
" transform="scale(0.015625)"/>
       <path id="DejaVuSans-Oblique-58" d="M 878 4666 
L 1516 4666 
L 2316 2981 
L 3763 4666 
L 4500 4666 
L 2578 2438 
L 3738 0 
L 3103 0 
L 2163 1966 
L 459 0 
L -275 0 
L 1906 2509 
L 878 4666 
z
" transform="scale(0.015625)"/>
       <path id="DejaVuSans-Oblique-42" d="M 1081 4666 
L 2694 4666 
Q 3350 4666 3675 4422 
Q 4000 4178 4000 3688 
Q 4000 3238 3720 2911 
Q 3441 2584 2988 2516 
Q 3375 2428 3569 2181 
Q 3763 1934 3763 1522 
Q 3763 819 3242 409 
Q 2722 0 1819 0 
L 172 0 
L 1081 4666 
z
M 1234 2228 
L 903 519 
L 1919 519 
Q 2491 519 2800 781 
Q 3109 1044 3109 1522 
Q 3109 1891 2904 2059 
Q 2700 2228 2247 2228 
L 1234 2228 
z
M 1606 4147 
L 1331 2741 
L 2272 2741 
Q 2775 2741 3058 2959 
Q 3341 3178 3341 3566 
Q 3341 3869 3150 4008 
Q 2959 4147 2541 4147 
L 1606 4147 
z
" transform="scale(0.015625)"/>
      </defs>
      <use xlink:href="#DejaVuSans-45" transform="translate(0 0.015625)"/>
      <use xlink:href="#DejaVuSans-50" transform="translate(63.183594 0.015625)"/>
      <use xlink:href="#DejaVuSans-4c" transform="translate(123.486328 0.015625)"/>
      <use xlink:href="#DejaVuSans-20" transform="translate(179.199219 0.015625)"/>
      <use xlink:href="#DejaVuSans-77" transform="translate(210.986328 0.015625)"/>
      <use xlink:href="#DejaVuSans-69" transform="translate(292.773438 0.015625)"/>
      <use xlink:href="#DejaVuSans-74" transform="translate(320.556641 0.015625)"/>
      <use xlink:href="#DejaVuSans-68" transform="translate(359.765625 0.015625)"/>
      <use xlink:href="#DejaVuSans-20" transform="translate(423.144531 0.015625)"/>
      <use xlink:href="#DejaVuSans-Oblique-58" transform="translate(454.931641 0.015625)"/>
      <use xlink:href="#DejaVuSans-Oblique-42" transform="translate(523.4375 -16.390625) scale(0.7)"/>
     </g>
    </g>
   </g>
  </g>
 </g>
 <defs>
  <clipPath id="p8d44aa06a9">
   <rect x="73.55" y="19.44" width="364.017727" height="264.04"/>
  </clipPath>
 </defs>
</svg>
